# Blender v2.90.1 OBJ File: 'asset (1).blend'
# www.blender.org
mtllib FloorBoards.mtl
o доски_Cube.010
v -2.000000 -0.149896 5.427156
v -1.942430 -0.181177 5.427156
v -1.942430 0.200912 5.427156
v -2.000000 0.169630 5.427156
v -1.942430 -0.181177 -5.472843
v -2.000000 -0.149896 -5.472843
v -2.000000 0.169630 -5.472843
v -1.942430 0.200912 -5.472843
v -0.968335 0.129735 -5.472843
v -0.914411 0.159035 -5.472843
v -0.914411 -0.178769 -5.472843
v -0.968335 -0.149468 -5.472843
v -0.914411 0.159035 5.527157
v -0.968335 0.129735 5.527157
v -0.968335 -0.149468 5.527157
v -0.914411 -0.178769 5.527157
v -1.000000 -0.149896 -5.472843
v -1.057569 -0.181177 -5.472843
v -1.057569 0.200912 -5.472843
v -1.000000 0.169630 -5.472843
v -1.057569 -0.181177 5.427156
v -1.000000 -0.149896 5.427156
v -1.000000 0.169630 5.427156
v -1.057569 0.200912 5.427156
v -0.031665 -0.149468 -5.472843
v -0.085588 -0.178769 -5.472843
v -0.085588 0.159035 -5.472843
v -0.031665 0.129735 -5.472843
v -0.085588 -0.178769 5.527157
v -0.031665 -0.149468 5.527157
v -0.031665 0.129735 5.527157
v -0.085588 0.159035 5.527157
v 0.046561 -0.135018 5.457535
v 0.098770 -0.163387 5.457535
v 0.098770 0.183122 5.457535
v 0.046561 0.154753 5.457535
v 0.078098 -0.172313 -5.472843
v 0.023200 -0.142483 -5.472843
v 0.023200 0.162217 -5.472843
v 0.078098 0.192047 -5.472843
v 1.000000 0.139173 -5.472843
v 1.057570 0.170455 -5.472843
v 1.057570 -0.190188 -5.472843
v 1.000000 -0.158907 -5.472843
v 1.057570 0.170455 5.479533
v 1.000000 0.139173 5.479533
v 1.000000 -0.158907 5.479533
v 1.057570 -0.190188 5.479533
v 0.976800 -0.142483 -5.472843
v 0.921902 -0.172313 -5.472843
v 0.921902 0.192047 -5.472843
v 0.976800 0.162217 -5.472843
v 0.901231 -0.163387 5.457535
v 0.953439 -0.135018 5.457535
v 0.953439 0.154753 5.457535
v 0.901231 0.183122 5.457535
v 2.000000 -0.158907 -5.472843
v 1.942431 -0.190188 -5.472843
v 1.942431 0.170455 -5.472843
v 2.000000 0.139173 -5.472843
v 1.942431 -0.190188 5.479533
v 2.000000 -0.158907 5.479533
v 2.000000 0.139173 5.479533
v 1.942431 0.170455 5.479533
vt 0.095749 0.137993
vt 0.100426 0.136441
vt 0.144995 0.136441
vt 0.149672 0.137993
vt 0.149672 0.161850
vt 0.144995 0.163402
vt 0.100426 0.163402
vt 0.095749 0.161850
vt 0.095749 0.137993
vt 0.100426 0.136441
vt 0.144995 0.136441
vt 0.149672 0.137993
vt 0.149672 0.161850
vt 0.144995 0.163402
vt 0.100426 0.163402
vt 0.095749 0.161850
vt 0.021400 0.466667
vt 0.045257 0.466667
vt 0.045257 0.520590
vt 0.021400 0.520590
vt 0.163534 0.766667
vt 0.187392 0.766667
vt 0.187392 0.820590
vt 0.163534 0.820590
vt 0.123017 0.547552
vt 0.078448 0.547552
vt 0.053825 0.464328
vt 0.120678 0.442044
vt 0.081097 0.714295
vt 0.085774 0.712743
vt 0.130343 0.712743
vt 0.135020 0.714295
vt 0.135020 0.738153
vt 0.130343 0.739705
vt 0.085774 0.739705
vt 0.081097 0.738153
vt 0.163534 0.766667
vt 0.187392 0.766667
vt 0.187392 0.820590
vt 0.163534 0.820590
vt 0.078448 0.358820
vt 0.123017 0.358820
vt 0.123017 0.412743
vt 0.078448 0.412743
vt 0.123017 0.547552
vt 0.078448 0.547552
vt 0.053825 0.464328
vt 0.120679 0.442044
vt 0.081097 0.714295
vt 0.085774 0.712743
vt 0.130343 0.712743
vt 0.135020 0.714295
vt 0.135020 0.738153
vt 0.130343 0.739705
vt 0.085774 0.739705
vt 0.081097 0.738153
vt 0.078448 0.358820
vt 0.123017 0.358820
vt 0.123017 0.412743
vt 0.078448 0.412743
vt 0.021400 0.466667
vt 0.021400 0.520590
vt 0.019848 0.520590
vt 0.019848 0.466667
vt 0.180066 0.520590
vt 0.180066 0.466667
vt 0.181618 0.466667
vt 0.181618 0.520590
vt 0.180066 0.520590
vt 0.180066 0.466667
vt 0.181618 0.466667
vt 0.181618 0.520590
vt 0.019848 0.520590
vt 0.019848 0.466667
vt 0.156208 0.466667
vt 0.156208 0.520590
vt 0.154656 0.520590
vt 0.154656 0.466667
vt 0.073771 0.547552
vt 0.046809 0.466667
vt 0.156208 0.466667
vt 0.156208 0.520590
vt 0.154656 0.520590
vt 0.154656 0.466667
vt 0.073771 0.547552
vt 0.046809 0.466667
vt 0.045257 0.466667
vt 0.045257 0.520590
vt 0.095749 0.137993
vt 0.100426 0.136441
vt 0.144995 0.136441
vt 0.149672 0.137993
vt 0.149672 0.161850
vt 0.144995 0.163402
vt 0.100426 0.163402
vt 0.095749 0.161850
vt 0.095749 0.137993
vt 0.100426 0.136441
vt 0.144995 0.136441
vt 0.149672 0.137993
vt 0.149672 0.161850
vt 0.144995 0.163402
vt 0.100426 0.163402
vt 0.095749 0.161850
vt 0.021400 0.466667
vt 0.045257 0.466667
vt 0.045257 0.520590
vt 0.021400 0.520590
vt 0.163534 0.766667
vt 0.187392 0.766667
vt 0.187392 0.820590
vt 0.163534 0.820590
vt 0.123017 0.547552
vt 0.078448 0.547552
vt 0.053825 0.464328
vt 0.120678 0.442044
vt 0.081097 0.714295
vt 0.085774 0.712743
vt 0.130343 0.712743
vt 0.135020 0.714295
vt 0.135020 0.738153
vt 0.130343 0.739705
vt 0.085774 0.739705
vt 0.081097 0.738153
vt 0.163534 0.766667
vt 0.187392 0.766667
vt 0.187392 0.820590
vt 0.163534 0.820590
vt 0.078448 0.358820
vt 0.123017 0.358820
vt 0.123017 0.412743
vt 0.078448 0.412743
vt 0.123017 0.547552
vt 0.078448 0.547552
vt 0.053825 0.464328
vt 0.120679 0.442044
vt 0.081097 0.714295
vt 0.085774 0.712743
vt 0.130343 0.712743
vt 0.135020 0.714295
vt 0.135020 0.738153
vt 0.130343 0.739705
vt 0.085774 0.739705
vt 0.081097 0.738153
vt 0.078448 0.358820
vt 0.123017 0.358820
vt 0.123017 0.412743
vt 0.078448 0.412743
vt 0.021400 0.466667
vt 0.021400 0.520590
vt 0.019848 0.520590
vt 0.019848 0.466667
vt 0.180066 0.520590
vt 0.180066 0.466667
vt 0.181618 0.466667
vt 0.181618 0.520590
vt 0.180066 0.520590
vt 0.180066 0.466667
vt 0.181618 0.466667
vt 0.181618 0.520590
vt 0.019848 0.520590
vt 0.019848 0.466667
vt 0.156208 0.466667
vt 0.156208 0.520590
vt 0.154656 0.520590
vt 0.154656 0.466667
vt 0.073771 0.547552
vt 0.046809 0.466667
vt 0.156208 0.466667
vt 0.156208 0.520590
vt 0.154656 0.520590
vt 0.154656 0.466667
vt 0.073771 0.547552
vt 0.046809 0.466667
vt 0.045257 0.466667
vt 0.045257 0.520590
vn -0.0000 0.0000 1.0000
vn 0.0000 -1.0000 0.0000
vn 0.0000 1.0000 0.0000
vn 1.0000 0.0000 0.0000
vn -0.0000 0.0000 -1.0000
vn -1.0000 0.0000 0.0000
vn -0.4774 -0.8787 0.0000
vn -0.4774 0.8787 0.0000
vn 0.4774 0.8787 0.0000
vn 0.4774 -0.8787 0.0000
vn 0.0000 1.0000 0.0008
vn 1.0000 0.0000 0.0021
vn -1.0000 0.0000 0.0021
vn -0.4774 -0.8787 0.0016
vn -0.4774 0.8787 0.0016
vn 0.4774 0.8787 0.0016
vn 0.4774 -0.8787 0.0016
vn 0.0000 -1.0000 0.0008
usemtl Material.002
s off
f 21/1/1 22/2/1 23/3/1 24/4/1 3/5/1 4/6/1 1/7/1 2/8/1
f 29/9/1 30/10/1 31/11/1 32/12/1 13/13/1 14/14/1 15/15/1 16/16/1
f 11/17/2 26/18/2 29/19/2 16/20/2
f 19/21/3 8/22/3 3/23/3 24/24/3
f 23/25/4 22/26/4 17/27/4 20/28/4
f 5/29/5 6/30/5 7/31/5 8/32/5 19/33/5 20/34/5 17/35/5 18/36/5
f 27/37/3 10/38/3 13/39/3 32/40/3
f 1/41/6 4/42/6 7/43/6 6/44/6
f 31/45/4 30/46/4 25/47/4 28/48/4
f 11/49/5 12/50/5 9/51/5 10/52/5 27/53/5 28/54/5 25/55/5 26/56/5
f 15/57/6 14/58/6 9/59/6 12/60/6
f 5/61/7 2/62/7 1/63/7 6/64/7
f 3/65/8 8/66/8 7/67/8 4/68/8
f 13/69/8 10/70/8 9/71/8 14/72/8
f 11/17/7 16/20/7 15/73/7 12/74/7
f 19/75/9 24/76/9 23/77/9 20/78/9
f 17/27/10 22/26/10 21/79/10 18/80/10
f 27/81/9 32/82/9 31/83/9 28/84/9
f 25/47/10 30/46/10 29/85/10 26/86/10
f 5/61/2 18/87/2 21/88/2 2/62/2
f 53/89/1 54/90/1 55/91/1 56/92/1 35/93/1 36/94/1 33/95/1 34/96/1
f 61/97/1 62/98/1 63/99/1 64/100/1 45/101/1 46/102/1 47/103/1 48/104/1
f 43/105/2 58/106/2 61/107/2 48/108/2
f 51/109/11 40/110/11 35/111/11 56/112/11
f 55/113/12 54/114/12 49/115/12 52/116/12
f 37/117/5 38/118/5 39/119/5 40/120/5 51/121/5 52/122/5 49/123/5 50/124/5
f 59/125/3 42/126/3 45/127/3 64/128/3
f 33/129/13 36/130/13 39/131/13 38/132/13
f 63/133/4 62/134/4 57/135/4 60/136/4
f 43/137/5 44/138/5 41/139/5 42/140/5 59/141/5 60/142/5 57/143/5 58/144/5
f 47/145/6 46/146/6 41/147/6 44/148/6
f 37/149/14 34/150/14 33/151/14 38/152/14
f 35/153/15 40/154/15 39/155/15 36/156/15
f 45/157/8 42/158/8 41/159/8 46/160/8
f 43/105/7 48/108/7 47/161/7 44/162/7
f 51/163/16 56/164/16 55/165/16 52/166/16
f 49/115/17 54/114/17 53/167/17 50/168/17
f 59/169/9 64/170/9 63/171/9 60/172/9
f 57/135/10 62/134/10 61/173/10 58/174/10
f 37/149/18 50/175/18 53/176/18 34/150/18
